<svg xmlns="http://www.w3.org/2000/svg" width="181.417" height="181.417" viewBox="0 0 48 48" xmlns:v="https://vecta.io/nano"><defs><linearGradient id="A" x1="7.056" y1="23.856" x2="40.939" y2="23.856" gradientUnits="userSpaceOnUse"><stop offset="0" stop-color="#24b8bf"/><stop offset="1" stop-color="#61e9fb"/></linearGradient></defs><path d="M7.767 15.347c.762.102 1.32.508 1.727 1.372.457.914.66 1.88.71 3.86.254 7.722 4.216 12.04 11.328 12.954v4.572c-.66.508-.71.6-2.692.71-.56.05-1.676.05-2.438.05H15.03v2.337h.6c.914-.152 6.706-.152 8.382-.152s7.468 0 8.382.152h.6v-2.337h-1.372c-.762 0-1.88 0-2.438-.05-1.93-.102-2.083-.152-2.642-.71l-.05-2.286v-2.286l.66-.102c4.978-.813 8.28-3.454 9.804-7.823.508-1.524.71-2.794.813-5.03.05-1.98.254-2.946.71-3.86.406-.864.965-1.27 1.727-1.372.457 0 .508-.152.71-.305v-1.27l-.356-.305h-2.235c-2.032 0-2.235 0-2.59.102-1.22.305-2.032 1.32-2.388 2.59-.406 1.016-.508 1.93-.56 4.166-.152 5.334-1.473 8.9-4.877 10.566-.406.203-1.27.56-1.372.56-.05 0-.05-4.216-.05-10.922l.05-10.922c.56-.56.71-.6 2.642-.71.56-.05 1.676-.05 2.438-.05h1.372V6.508h-.6c-.914.152-6.706.152-8.382.152s-7.468 0-8.382-.152h-.6v2.337h1.372c.762 0 1.88 0 2.438.05 1.98.102 2.032.203 2.692.71V20.53l-.05 10.922s-.203-.05-.457-.152c-1.168-.356-2.083-.965-2.946-1.778-2.083-2.083-2.794-4.978-2.896-9.195-.05-2.235-.152-3.15-.56-4.166-.356-1.27-1.168-2.286-2.388-2.59-.356-.102-.56-.102-2.54-.102-2.388 0-2.388 0-2.59.305-.05.152-.05.305-.05.71 0 .71.102.864.71.864z" fill="url(#A)"/></svg>